<?xml version="1.0" encoding="UTF-8"?>
<svg xmlns="http://www.w3.org/2000/svg" viewBox="0 0 173 235.03">
  <path fill="#a61a2f" d="M.36,147.78l21.37-21.37c.77-.77,2.1-.23,2.1.87v42.73c0,1.1-1.32,1.64-2.1.87L.36,149.52c-.48-.48-.48-1.26,0-1.74ZM148.15,126.5v44.3c0,1.1,1.32,1.64,2.1.87l22.15-22.15c.48-.48.48-1.26,0-1.74l-22.15-22.15c-.77-.77-2.1-.23-2.1.87ZM33.2,156.23v25.23c0,.33.13.64.36.87l27,27c.77.77,2.1.23,2.1-.87v-31.06c-11.32-3.84-21.22-10.89-29.46-21.17ZM48.69,135.27c3.81,4.49,8.59,8.86,13.97,12.4v-58.84c0-1.1-1.32-1.64-2.1-.87l-27,27c-.23.23-.36.54-.36.87v29.4c3.55-3.28,8.14-7.98,10.96-10.28,1.36-1.11,3.39-1.02,4.53.32ZM71.65,179.72v40.19c0,.33.13.64.36.87l13.89,13.89c.48.48,1.26.48,1.74,0l13.11-13.11c.23-.23.36-.54.36-.87v-42.3c-5.64,1.68-11.6,2.55-17.79,2.45-4.02-.06-7.91-.44-11.67-1.12ZM101.11,156.76v-80.15c0-.33-.13-.64-.36-.87l-13.11-13.11c-.48-.48-1.26-.48-1.74,0l-13.89,13.89c-.23.23-.36.54-.36.87v75.1c8.75,3.64,17.56,4.43,25.84,4.43,1.22,0,2.42-.06,3.62-.16ZM139.56,138.71v-23.65c0-.33-.13-.64-.36-.87l-27-27c-.77-.77-2.1-.23-2.1.87v67.15c10.36-2.79,19.63-8.74,27.43-15.96.48-.48,1.25-.65,2.03-.55ZM110.1,174.92v34.32c0,1.1,1.32,1.64,2.1.87l27-27c.23-.23.36-.54.36-.87v-34.34c-7.23,11.65-17.4,21.25-29.46,27.02ZM139.05,38.56c-9.55-2.45-29.59-6.23-51.99-6.44-21.75-.2-44.2,3.25-53.49,5.59-.67.17-.92.85-.75,1.53l2.43,9.37c.17.66.68,1.02,1.35.89,14.74-2.73,29.31-5.53,50.89-5.34,20.76.18,34.98,2.8,48.58,5.98.67.16,1.33-.23,1.51-.89l2.36-9.17c.18-.67-.22-1.35-.89-1.53ZM131.34,17.86c-3.9-.71-6.95-1.07-10.63-1.69-.65-.11-1.11-.72-1.03-1.37l1.26-10.06.05-.4c.08-.66-.34-1.25-.99-1.36-3.1-.52-9.55-1.37-9.55-1.37,0,0-.5-.06-.97-.12-.66-.08-1.26.38-1.37,1.03l-1.26,10.29-.05.29c-.09.67-.71,1.14-1.38,1.06-3.61-.4-7.25-.65-10.91-.81-.66-.03-1.17-.58-1.17-1.24v-.6s.05-10.07.05-10.07c-.03-.66-.35-1.09-1.06-1.13-.47-.02-1.14-.07-1.14-.07,0,0-6.49-.32-9.63-.19-.66.03-1.17.61-1.17,1.28v.4s-.03,10.14-.03,10.14v.05c0,.67-.56,1.22-1.23,1.24-3.93.08-7.83.26-11.71.53-.67.05-1.25-.45-1.31-1.12l-.02-.27-.89-10.53c-.09-.66-.67-1.14-1.34-1.08-.47.04-.97.09-.97.09,0,0-6.48.53-9.59.95-.66.09-1.1.66-1.04,1.33l.04.4.89,10.4c.06.66-.42,1.25-1.08,1.34-3.69.5-7.06,1.09-10.69,1.76-.64.12-1.27-.28-1.43-.91l-2.72-10.52c-.16-.64-.8-1.05-1.45-.92-.46.1-.95.2-.95.2,0,0-6.3,1.4-9.34,2.18-.64.16-1.04.81-.91,1.46l.05.21.15.56,2.98,11.21,2.99,10.91c.18.64.82,1.02,1.46.88,13.99-3.17,32.39-6.48,53.81-6.25,22,.23,40.54,3.55,54.83,7.13.66.16,1.32-.23,1.49-.88l2.89-11.09,1.51-5.65,1.31-4.81c.18-.66-.2-1.35-.86-1.53-3.5-.97-6.97-1.99-10.51-2.8-.66-.15-1.31.25-1.48.91l-1.25,4.95-1.22,4.78c-.16.64-.8,1.04-1.44.9"/>
</svg>
